<svg xmlns="http://www.w3.org/2000/svg" viewBox="0 0 22 22" version="1.1" id="svg6"><defs id="defs3051"><style type="text/css" id="current-color-scheme"></style><style id="current-color-scheme-2" type="text/css"></style></defs><path id="path843" d="M10.564 11.57h.029c1.98 0 3.592-1.698 3.592-3.785S12.573 4 10.593 4C6.406 4 3 7.59 3 12c0 3.115 1.699 5.82 4.171 7.14a4.778 4.778 0 0 1-.987-2.925c0-2.55 1.963-4.628 4.38-4.644zm.144-4.93c.623 0 1.128.533 1.128 1.19 0 .656-.505 1.189-1.128 1.189-.624 0-1.129-.533-1.129-1.19 0-.656.505-1.189 1.129-1.189z" stroke-width="1"/><path d="M11.43 12.43a.381.381 0 0 1-.028 0c-1.981 0-3.592 1.698-3.592 3.785S9.42 20 11.402 20c4.186 0 7.592-3.589 7.592-8 0-3.115-1.698-5.82-4.17-7.14.616.799.986 1.817.986 2.925 0 2.551-1.962 4.628-4.38 4.645zm-.144 4.93c-.623 0-1.128-.533-1.128-1.19 0-.656.505-1.189 1.128-1.189.624 0 1.13.533 1.13 1.19 0 .656-.506 1.189-1.13 1.189z" id="path1062" opacity=".389" stroke-width="1"/></svg>