<?xml version="1.0" encoding="UTF-8"?>
<svg width="64" height="64" version="1.1" viewBox="0 0 16.933 16.933" xmlns="http://www.w3.org/2000/svg" xmlns:cc="http://creativecommons.org/ns#" xmlns:dc="http://purl.org/dc/elements/1.1/" xmlns:rdf="http://www.w3.org/1999/02/22-rdf-syntax-ns#">
 <metadata>
  <rdf:RDF>
   <cc:Work rdf:about="">
    <dc:format>image/svg+xml</dc:format>
    <dc:type rdf:resource="http://purl.org/dc/dcmitype/StillImage"/>
    <dc:title/>
   </cc:Work>
  </rdf:RDF>
 </metadata>
 <defs>
  <filter id="filter11290" x="-.024" y="-.024" width="1.048" height="1.048" color-interpolation-filters="sRGB">
   <feGaussianBlur stdDeviation="0.15875313"/>
  </filter>
  <linearGradient id="linearGradient919" x1="2.9831" x2="62.001" y1="61.458" y2="2.4407" gradientTransform="matrix(.26458 0 0 .26458 9.2e-5 .0001242)" gradientUnits="userSpaceOnUse">
   <stop stop-color="#16a085" offset="0"/>
   <stop stop-color="#2ecc85" offset="1"/>
  </linearGradient>
 </defs>
 <circle cx="8.4665" cy="8.4665" r="7.9377" filter="url(#filter11290)" opacity=".25" stroke-width=".14032"/>
 <path d="m16.404 8.4666c0 0.95153-0.16749 1.8639-0.47465 2.7093-0.21351 0.58768-0.49439 1.1433-0.83392 1.6572-0.14222 0.21608-0.29514 0.42475-0.45746 0.62528-0.51966 0.64179-1.1372 1.2007-1.8305 1.6543-0.2553 0.16718-0.52064 0.32011-0.79538 0.45711-1.0668 0.53389-2.2711 0.83422-3.5456 0.83422s-2.4788-0.30032-3.5456-0.83424c-0.27474-0.13705-0.5404-0.28998-0.79569-0.45711-0.70206-0.45973-1.327-1.0274-1.8509-1.6798-0.16263-0.20216-0.31524-0.41274-0.45746-0.63078-0.33046-0.5054-0.60422-1.0507-0.8135-1.627-0.30712-0.8453-0.47431-1.7573-0.47431-2.7085 0-4.3838 3.5538-7.9376 7.9376-7.9376 2.2005 0 4.1917 0.89549 5.6294 2.3417 0.41436 0.41663 0.78273 0.8793 1.0963 1.3795 0.29646 0.47108 0.54429 0.97582 0.73704 1.5068 0.30718 0.84559 0.47468 1.7579 0.47468 2.7093z" fill="url(#linearGradient919)" stroke-width=".031006"/>
 <g transform="translate(-.010155 .15352)" fill="#fff" aria-label="P">
  <path d="m7.3167 5.4667v2.899h1.3126q0.72862 0 1.1265-0.37723 0.3979-0.37723 0.3979-1.0748 0-0.69245-0.3979-1.0697-0.3979-0.37723-1.1265-0.37723zm-1.0438-0.85781h2.3564q1.2971 0 1.9585 0.5891 0.66661 0.58393 0.66661 1.7156 0 1.142-0.66661 1.726-0.66145 0.58393-1.9585 0.58393h-1.3126v3.1005h-1.0438z" fill="#fff" stroke-width=".26458"/>
 </g>
 <circle cx="-215.94" cy="-365.39" r="0" fill="#5e4aa6" stroke-width=".26458"/>
</svg>
