<svg xmlns="http://www.w3.org/2000/svg" width="22" height="22" version="1">
 <rect style="fill:#ffc83b" width="20" height="20" x="1" y="1" rx="15" ry="15"/>
 <rect style="fill:#be8a06" width="20" height="6" x="1" y="8" rx="0.7" ry="2"/>
 <circle style="fill:#1ac52f" cx="11" cy="11" r="3.5"/>
 <g style="opacity:0.2" transform="matrix(0.5,0,0,0.5,-0.00499985,0.4997717)">
  <path d="M 22,12 A 10,10 0 0 0 12,22 10,10 0 0 0 22,32 10,10 0 0 0 32,22 10,10 0 0 0 22,12 Z m 0,4 a 6,6 0 0 1 6,6 6,6 0 0 1 -6,6 6,6 0 0 1 -6,-6 6,6 0 0 1 6,-6 z"/>
  <path style="stroke:#ffffff;stroke-width:4;stroke-linecap:round" d="M 28.310137,28.760862 34,33.999099"/>
  <path transform="matrix(2,0,0,2,-1.9900003,-1.9989006)" d="m 11.994141,7 a 5,5 0 0 0 -5.0000004,5 5,5 0 0 0 5.0000004,5 5,5 0 0 0 2.623047,-0.75 l 2.699218,2.484375 a 1.000392,1.000392 0 0 0 1.355469,-1.470703 l -2.59375,-2.386719 A 5,5 0 0 0 16.994141,12 a 5,5 0 0 0 -5,-5 z m 0,2 a 3,3 0 0 1 3,3 3,3 0 0 1 -3,3 3,3 0 0 1 -3.0000004,-3 3,3 0 0 1 3.0000004,-3 z"/>
 </g>
 <path style="opacity:0.3" d="m 8,8 v 2 h 2 V 8 Z m 2,2 v 2 h 2 v -2 z m 2,0 h 2 V 8 h -2 z m 0,2 v 2 h 2 v -2 z m -2,0 H 8 v 2 h 2 z"/>
 <g transform="matrix(0.5,0,0,0.5,-0.00499985,-5.497e-4)">
  <path style="fill:#ffffff" d="M 22,12 A 10,10 0 0 0 12,22 10,10 0 0 0 22,32 10,10 0 0 0 32,22 10,10 0 0 0 22,12 Z m 0,4 a 6,6 0 0 1 6,6 6,6 0 0 1 -6,6 6,6 0 0 1 -6,-6 6,6 0 0 1 6,-6 z"/>
  <path style="fill:none;stroke:#ffffff;stroke-width:4;stroke-linecap:round" d="M 28.310137,28.760862 34,33.999099"/>
  <path style="fill:#ffffff" transform="matrix(2,0,0,2,-1.9900003,-1.9989006)" d="m 11.994141,7 a 5,5 0 0 0 -5.0000004,5 5,5 0 0 0 5.0000004,5 5,5 0 0 0 2.623047,-0.75 l 2.699218,2.484375 a 1.000392,1.000392 0 0 0 1.355469,-1.470703 l -2.59375,-2.386719 A 5,5 0 0 0 16.994141,12 a 5,5 0 0 0 -5,-5 z m 0,2 a 3,3 0 0 1 3,3 3,3 0 0 1 -3,3 3,3 0 0 1 -3.0000004,-3 3,3 0 0 1 3.0000004,-3 z"/>
 </g>
</svg>
