<?xml version="1.0" encoding="UTF-8"?>
<svg id="Calculator" width="64" height="64" enable-background="new 0 0 1024 1024" image-rendering="optimizeSpeed" version="1.1" viewBox="0 0 64 64" xmlns="http://www.w3.org/2000/svg" xmlns:cc="http://creativecommons.org/ns#" xmlns:dc="http://purl.org/dc/elements/1.1/" xmlns:rdf="http://www.w3.org/1999/02/22-rdf-syntax-ns#">
 <metadata>
  <rdf:RDF>
   <cc:Work rdf:about="">
    <dc:format>image/svg+xml</dc:format>
    <dc:type rdf:resource="http://purl.org/dc/dcmitype/StillImage"/>
    <dc:title/>
   </cc:Work>
  </rdf:RDF>
 </metadata>
 <defs>
  <filter id="filter11290" x="-.024" y="-.024" width="1.048" height="1.048" color-interpolation-filters="sRGB">
   <feGaussianBlur stdDeviation="0.15875313"/>
  </filter>
  <linearGradient id="linearGradient1307" x1="16.393" x2=".60977" y1=".69761" y2="16.375" gradientTransform="matrix(3.7796 0 0 3.7796 -.13249 .024378)" gradientUnits="userSpaceOnUse">
   <stop stop-color="#ffdc32" offset="0"/>
   <stop stop-color="#ff7832" offset="1"/>
  </linearGradient>
 </defs>
 <circle transform="matrix(3.7796 0 0 3.7796 -.1028 .024568)" cx="8.4937" cy="8.46" r="7.9377" filter="url(#filter11290)" opacity=".25" stroke-width=".14032"/>
 <path d="m62 32c0 3.5964-0.63304 7.0448-1.7939 10.24-0.80698 2.2212-1.8686 4.3212-3.1519 6.2636-0.53753 0.8167-1.1155 1.6054-1.729 2.3633-1.9641 2.4257-4.2982 4.5382-6.9186 6.2526-0.96493 0.63187-1.9678 1.2098-3.0061 1.7277-4.0321 2.0179-8.5839 3.153-13.401 3.153-4.8171 0-9.3689-1.1351-13.401-3.1531-1.0384-0.518-2.0425-1.096-3.0074-1.7277-2.6535-1.7376-5.0155-3.8832-6.9957-6.349-0.61468-0.76408-1.1915-1.56-1.729-2.3841-1.249-1.9102-2.2837-3.9712-3.0747-6.1494-1.1608-3.1949-1.7927-6.6419-1.7927-10.237 0-16.569 13.432-30.001 30.001-30.001 8.317 0 15.843 3.3846 21.277 8.8507 1.5661 1.5747 2.9584 3.3234 4.1436 5.214 1.1205 1.7805 2.0572 3.6882 2.7857 5.6951 1.161 3.196 1.7941 6.6442 1.7941 10.24z" fill="url(#linearGradient1307)" stroke-width=".11719"/>
 <path d="m31.942 35.636c4.6149 0 8.478-1.5682 8.7121-3.6152-0.6862-1.925-1.4346-4.0241-2.1698-6.0874-0.5105 1.4716-3.3298 2.5092-6.5419 2.5092-3.2113 0-6.0306-1.038-6.5419-2.5089-0.73524 2.0628-1.4828 4.1616-2.169 6.087 0.23324 2.047 4.0956 3.6152 8.7105 3.6152zm0-12.946c2.169 0 4.1844-0.67152 4.774-1.7141-0.81286-2.2833-1.5114-4.2423-1.9528-5.4784-0.29309-0.82367-1.6222-1.2515-2.8213-1.2515-1.199 0-2.5282 0.42786-2.8216 1.2515-0.4406 1.2361-1.1388 3.195-1.9528 5.4784 0.59005 1.0426 2.6062 1.7141 4.7744 1.7141zm16.954 14.853-7.2508-2.9205 0.83487 2.3297c-0.04209 2.4691-4.8351 4.4365-10.538 4.4365-5.702 0-10.496-1.9675-10.537-4.4365l0.8341-2.3297-7.2501 2.9205c-2.0327 0.81904-2.1177 2.3359-0.18922 3.3696l13.636 7.3119c1.9285 1.0337 5.0849 1.0337 7.0134 0l13.636-7.3119c1.9288-1.0337 1.8435-2.5506-0.18922-3.3696z" fill="#fff" stroke-width="6.0561"/>
</svg>
